<?xml version="1.0" encoding="UTF-8" standalone="no"?>
<!DOCTYPE svg PUBLIC "-//W3C//DTD SVG 1.1//EN"
 "http://www.w3.org/Graphics/SVG/1.1/DTD/svg11.dtd">
<!-- Generated by graphviz version 2.40.1 (20161225.0304)
 -->
<!-- Title: dependencies Pages: 1 -->
<svg width="638pt" height="284pt"
 viewBox="0.00 0.00 638.00 284.00" xmlns="http://www.w3.org/2000/svg" xmlns:xlink="http://www.w3.org/1999/xlink">
<g id="graph0" class="graph" transform="scale(1 1) rotate(0) translate(4 280)">
<title>dependencies</title>
<polygon fill="#ffffff" stroke="transparent" points="-4,4 -4,-280 634,-280 634,4 -4,4"/>
<text text-anchor="start" x="294.0091" y="-42.4" font-family="sans-serif" font-weight="bold" font-size="14.00" fill="#000000">Legend</text>
<polygon fill="#ffffb3" stroke="transparent" points="81,-10 81,-30 101,-30 101,-10 81,-10"/>
<text text-anchor="start" x="104.629" y="-15.4" font-family="sans-serif" font-size="14.00" fill="#000000"> &#160;Declarations</text>
<polygon fill="#8dd3c7" stroke="transparent" points="194,-10 194,-30 214,-30 214,-10 194,-10"/>
<text text-anchor="start" x="217.7251" y="-15.4" font-family="sans-serif" font-size="14.00" fill="#000000"> &#160;Module</text>
<polygon fill="#80b1d3" stroke="transparent" points="280,-10 280,-30 300,-30 300,-10 280,-10"/>
<text text-anchor="start" x="303.7812" y="-15.4" font-family="sans-serif" font-size="14.00" fill="#000000"> &#160;Bootstrap</text>
<polygon fill="#fdb462" stroke="transparent" points="377,-10 377,-30 397,-30 397,-10 377,-10"/>
<text text-anchor="start" x="400.6732" y="-15.4" font-family="sans-serif" font-size="14.00" fill="#000000"> &#160;Providers</text>
<polygon fill="#fb8072" stroke="transparent" points="473,-10 473,-30 493,-30 493,-10 473,-10"/>
<text text-anchor="start" x="496.7258" y="-15.4" font-family="sans-serif" font-size="14.00" fill="#000000"> &#160;Exports</text>
<g id="clust1" class="cluster">
<title>cluster_AppModule</title>
<polygon fill="none" stroke="#000000" stroke-dasharray="1,5" points="8,-70 8,-268 622,-268 622,-70 8,-70"/>
</g>
<g id="clust2" class="cluster">
<title>cluster_AppModule_declarations</title>
<polygon fill="none" stroke="#000000" points="138,-78 138,-130 614,-130 614,-78 138,-78"/>
</g>
<g id="clust6" class="cluster">
<title>cluster_AppModule_imports</title>
<polygon fill="none" stroke="#000000" points="16,-78 16,-130 130,-130 130,-78 16,-78"/>
</g>
<g id="clust8" class="cluster">
<title>cluster_AppModule_bootstrap</title>
<polygon fill="none" stroke="#000000" points="250,-208 250,-260 374,-260 374,-208 250,-208"/>
</g>
<!-- AppComponent -->
<g id="node1" class="node">
<title>AppComponent</title>
<polygon fill="#ffffb3" stroke="#000000" points="605.9399,-122 500.0601,-122 500.0601,-86 605.9399,-86 605.9399,-122"/>
<text text-anchor="middle" x="553" y="-99.8" font-family="Times,serif" font-size="14.00" fill="#000000">AppComponent</text>
</g>
<!-- AppModule -->
<g id="node4" class="node">
<title>AppModule</title>
<polygon fill="#8dd3c7" stroke="#000000" points="353.6571,-187 350.6571,-191 329.6571,-191 326.6571,-187 270.3429,-187 270.3429,-151 353.6571,-151 353.6571,-187"/>
<text text-anchor="middle" x="312" y="-164.8" font-family="Times,serif" font-size="14.00" fill="#000000">AppModule</text>
</g>
<!-- AppComponent&#45;&gt;AppModule -->
<g id="edge1" class="edge">
<title>AppComponent&#45;&gt;AppModule</title>
<path fill="none" stroke="#000000" d="M553,-122.1061C553,-141.3391 553,-169 553,-169 553,-169 363.7039,-169 363.7039,-169"/>
<polygon fill="#000000" stroke="#000000" points="363.7039,-165.5001 353.7039,-169 363.7038,-172.5001 363.7039,-165.5001"/>
</g>
<!-- MeuPrimeiro2Component -->
<g id="node2" class="node">
<title>MeuPrimeiro2Component</title>
<polygon fill="#ffffb3" stroke="#000000" points="482.4818,-122 319.5182,-122 319.5182,-86 482.4818,-86 482.4818,-122"/>
<text text-anchor="middle" x="401" y="-99.8" font-family="Times,serif" font-size="14.00" fill="#000000">MeuPrimeiro2Component</text>
</g>
<!-- MeuPrimeiro2Component&#45;&gt;AppModule -->
<g id="edge2" class="edge">
<title>MeuPrimeiro2Component&#45;&gt;AppModule</title>
<path fill="none" stroke="#000000" d="M336.6686,-122.1061C336.6686,-122.1061 336.6686,-140.991 336.6686,-140.991"/>
<polygon fill="#000000" stroke="#000000" points="333.1687,-140.9909 336.6686,-150.991 340.1687,-140.991 333.1687,-140.9909"/>
</g>
<!-- MeuPrimeiroComponent -->
<g id="node3" class="node">
<title>MeuPrimeiroComponent</title>
<polygon fill="#ffffb3" stroke="#000000" points="301.9818,-122 146.0182,-122 146.0182,-86 301.9818,-86 301.9818,-122"/>
<text text-anchor="middle" x="224" y="-99.8" font-family="Times,serif" font-size="14.00" fill="#000000">MeuPrimeiroComponent</text>
</g>
<!-- MeuPrimeiroComponent&#45;&gt;AppModule -->
<g id="edge3" class="edge">
<title>MeuPrimeiroComponent&#45;&gt;AppModule</title>
<path fill="none" stroke="#000000" d="M286.0814,-122.1061C286.0814,-122.1061 286.0814,-140.991 286.0814,-140.991"/>
<polygon fill="#000000" stroke="#000000" points="282.5814,-140.9909 286.0814,-150.991 289.5814,-140.991 282.5814,-140.9909"/>
</g>
<!-- AppComponent  -->
<g id="node6" class="node">
<title>AppComponent </title>
<polygon fill="#80b1d3" stroke="#000000" points="366.439,-252 257.561,-252 257.561,-216 366.439,-216 366.439,-252"/>
<text text-anchor="middle" x="312" y="-229.8" font-family="Times,serif" font-size="14.00" fill="#000000">AppComponent </text>
</g>
<!-- AppModule&#45;&gt;AppComponent  -->
<g id="edge5" class="edge">
<title>AppModule&#45;&gt;AppComponent </title>
<path fill="none" stroke="#000000" stroke-dasharray="1,5" d="M312,-187.1061C312,-187.1061 312,-205.991 312,-205.991"/>
<polygon fill="#000000" stroke="#000000" points="308.5001,-205.9909 312,-215.991 315.5001,-205.991 308.5001,-205.9909"/>
</g>
<!-- CursosModule -->
<g id="node5" class="node">
<title>CursosModule</title>
<polygon fill="#8dd3c7" stroke="#000000" points="122.4372,-122 119.4372,-126 98.4372,-126 95.4372,-122 23.5628,-122 23.5628,-86 122.4372,-86 122.4372,-122"/>
<text text-anchor="middle" x="73" y="-99.8" font-family="Times,serif" font-size="14.00" fill="#000000">CursosModule</text>
</g>
<!-- CursosModule&#45;&gt;AppModule -->
<g id="edge4" class="edge">
<title>CursosModule&#45;&gt;AppModule</title>
<path fill="none" stroke="#000000" d="M73,-122.1061C73,-141.3391 73,-169 73,-169 73,-169 260.0959,-169 260.0959,-169"/>
<polygon fill="#000000" stroke="#000000" points="260.0959,-172.5001 270.0959,-169 260.0959,-165.5001 260.0959,-172.5001"/>
</g>
</g>
</svg>
