<?xml version="1.0" encoding="UTF-8" standalone="no"?>
<!DOCTYPE svg PUBLIC "-//W3C//DTD SVG 1.1//EN"
 "http://www.w3.org/Graphics/SVG/1.1/DTD/svg11.dtd">
<!-- Generated by graphviz version 2.40.1 (20161225.0304)
 -->
<!-- Title: dependencies Pages: 1 -->
<svg width="946pt" height="290pt"
 viewBox="0.00 0.00 946.00 290.00" xmlns="http://www.w3.org/2000/svg" xmlns:xlink="http://www.w3.org/1999/xlink">
<g id="graph0" class="graph" transform="scale(1 1) rotate(0) translate(4 286)">
<title>dependencies</title>
<polygon fill="#ffffff" stroke="transparent" points="-4,4 -4,-286 942,-286 942,4 -4,4"/>
<text text-anchor="start" x="448.0091" y="-42.4" font-family="sans-serif" font-weight="bold" font-size="14.00" fill="#000000">Legend</text>
<polygon fill="#ffffb3" stroke="transparent" points="235,-10 235,-30 255,-30 255,-10 235,-10"/>
<text text-anchor="start" x="258.629" y="-15.4" font-family="sans-serif" font-size="14.00" fill="#000000"> &#160;Declarations</text>
<polygon fill="#8dd3c7" stroke="transparent" points="348,-10 348,-30 368,-30 368,-10 348,-10"/>
<text text-anchor="start" x="371.7251" y="-15.4" font-family="sans-serif" font-size="14.00" fill="#000000"> &#160;Module</text>
<polygon fill="#80b1d3" stroke="transparent" points="434,-10 434,-30 454,-30 454,-10 434,-10"/>
<text text-anchor="start" x="457.7812" y="-15.4" font-family="sans-serif" font-size="14.00" fill="#000000"> &#160;Bootstrap</text>
<polygon fill="#fdb462" stroke="transparent" points="531,-10 531,-30 551,-30 551,-10 531,-10"/>
<text text-anchor="start" x="554.6732" y="-15.4" font-family="sans-serif" font-size="14.00" fill="#000000"> &#160;Providers</text>
<polygon fill="#fb8072" stroke="transparent" points="627,-10 627,-30 647,-30 647,-10 627,-10"/>
<text text-anchor="start" x="650.7258" y="-15.4" font-family="sans-serif" font-size="14.00" fill="#000000"> &#160;Exports</text>
<g id="clust1" class="cluster">
<title>cluster_AppModule</title>
<polygon fill="none" stroke="#000000" stroke-dasharray="1,5" points="8,-70 8,-274 622,-274 622,-70 8,-70"/>
</g>
<g id="clust2" class="cluster">
<title>cluster_AppModule_declarations</title>
<polygon fill="none" stroke="#000000" points="16,-78 16,-130 492,-130 492,-78 16,-78"/>
</g>
<g id="clust6" class="cluster">
<title>cluster_AppModule_imports</title>
<polygon fill="none" stroke="#000000" points="500,-78 500,-130 614,-130 614,-78 500,-78"/>
</g>
<g id="clust8" class="cluster">
<title>cluster_AppModule_bootstrap</title>
<polygon fill="none" stroke="#000000" points="293,-214 293,-266 417,-266 417,-214 293,-214"/>
</g>
<g id="clust10" class="cluster">
<title>cluster_CursosModule</title>
<polygon fill="none" stroke="#000000" stroke-dasharray="1,5" points="630,-138 630,-206 930,-206 930,-138 630,-138"/>
</g>
<g id="clust11" class="cluster">
<title>cluster_CursosModule_declarations</title>
<polygon fill="none" stroke="#000000" points="786,-146 786,-198 922,-198 922,-146 786,-146"/>
</g>
<g id="clust14" class="cluster">
<title>cluster_CursosModule_exports</title>
<polygon fill="none" stroke="#000000" points="638,-146 638,-198 778,-198 778,-146 638,-146"/>
</g>
<!-- AppComponent -->
<g id="node1" class="node">
<title>AppComponent</title>
<polygon fill="#ffffb3" stroke="#000000" points="483.9399,-122 378.0601,-122 378.0601,-86 483.9399,-86 483.9399,-122"/>
<text text-anchor="middle" x="431" y="-99.8" font-family="Times,serif" font-size="14.00" fill="#000000">AppComponent</text>
</g>
<!-- AppModule -->
<g id="node4" class="node">
<title>AppModule</title>
<polygon fill="#8dd3c7" stroke="#000000" points="396.6571,-190 393.6571,-194 372.6571,-194 369.6571,-190 313.3429,-190 313.3429,-154 396.6571,-154 396.6571,-190"/>
<text text-anchor="middle" x="355" y="-167.8" font-family="Times,serif" font-size="14.00" fill="#000000">AppModule</text>
</g>
<!-- AppComponent&#45;&gt;AppModule -->
<g id="edge1" class="edge">
<title>AppComponent&#45;&gt;AppModule</title>
<path fill="none" stroke="#000000" d="M387.5544,-122.2228C387.5544,-122.2228 387.5544,-143.7269 387.5544,-143.7269"/>
<polygon fill="#000000" stroke="#000000" points="384.0544,-143.7269 387.5544,-153.7269 391.0544,-143.727 384.0544,-143.7269"/>
</g>
<!-- MeuPrimeiro2Component -->
<g id="node2" class="node">
<title>MeuPrimeiro2Component</title>
<polygon fill="#ffffb3" stroke="#000000" points="360.4818,-122 197.5182,-122 197.5182,-86 360.4818,-86 360.4818,-122"/>
<text text-anchor="middle" x="279" y="-99.8" font-family="Times,serif" font-size="14.00" fill="#000000">MeuPrimeiro2Component</text>
</g>
<!-- MeuPrimeiro2Component&#45;&gt;AppModule -->
<g id="edge2" class="edge">
<title>MeuPrimeiro2Component&#45;&gt;AppModule</title>
<path fill="none" stroke="#000000" d="M336.8314,-122.2228C336.8314,-122.2228 336.8314,-143.7269 336.8314,-143.7269"/>
<polygon fill="#000000" stroke="#000000" points="333.3314,-143.7269 336.8314,-153.7269 340.3314,-143.727 333.3314,-143.7269"/>
</g>
<!-- MeuPrimeiroComponent -->
<g id="node3" class="node">
<title>MeuPrimeiroComponent</title>
<polygon fill="#ffffb3" stroke="#000000" points="179.9818,-122 24.0182,-122 24.0182,-86 179.9818,-86 179.9818,-122"/>
<text text-anchor="middle" x="102" y="-99.8" font-family="Times,serif" font-size="14.00" fill="#000000">MeuPrimeiroComponent</text>
</g>
<!-- MeuPrimeiroComponent&#45;&gt;AppModule -->
<g id="edge3" class="edge">
<title>MeuPrimeiroComponent&#45;&gt;AppModule</title>
<path fill="none" stroke="#000000" d="M102,-122.2228C102,-142.3652 102,-172 102,-172 102,-172 303.2222,-172 303.2222,-172"/>
<polygon fill="#000000" stroke="#000000" points="303.2222,-175.5001 313.2222,-172 303.2222,-168.5001 303.2222,-175.5001"/>
</g>
<!-- AppComponent  -->
<g id="node6" class="node">
<title>AppComponent </title>
<polygon fill="#80b1d3" stroke="#000000" points="409.439,-258 300.561,-258 300.561,-222 409.439,-222 409.439,-258"/>
<text text-anchor="middle" x="355" y="-235.8" font-family="Times,serif" font-size="14.00" fill="#000000">AppComponent </text>
</g>
<!-- AppModule&#45;&gt;AppComponent  -->
<g id="edge5" class="edge">
<title>AppModule&#45;&gt;AppComponent </title>
<path fill="none" stroke="#000000" stroke-dasharray="1,5" d="M355,-190.2228C355,-190.2228 355,-211.7269 355,-211.7269"/>
<polygon fill="#000000" stroke="#000000" points="351.5001,-211.7269 355,-221.7269 358.5001,-211.727 351.5001,-211.7269"/>
</g>
<!-- CursosModule -->
<g id="node5" class="node">
<title>CursosModule</title>
<polygon fill="#8dd3c7" stroke="#000000" points="606.4372,-122 603.4372,-126 582.4372,-126 579.4372,-122 507.5628,-122 507.5628,-86 606.4372,-86 606.4372,-122"/>
<text text-anchor="middle" x="557" y="-99.8" font-family="Times,serif" font-size="14.00" fill="#000000">CursosModule</text>
</g>
<!-- CursosModule&#45;&gt;AppModule -->
<g id="edge4" class="edge">
<title>CursosModule&#45;&gt;AppModule</title>
<path fill="none" stroke="#000000" d="M540.594,-122.2667C540.594,-140.5552 540.594,-166 540.594,-166 540.594,-166 407.1141,-166 407.1141,-166"/>
<polygon fill="#000000" stroke="#000000" points="407.1142,-162.5001 397.1141,-166 407.1141,-169.5001 407.1142,-162.5001"/>
</g>
<!-- CursosComponent  -->
<g id="node8" class="node">
<title>CursosComponent </title>
<polygon fill="#fb8072" stroke="#000000" points="769.7191,-190 646.2809,-190 646.2809,-154 769.7191,-154 769.7191,-190"/>
<text text-anchor="middle" x="708" y="-167.8" font-family="Times,serif" font-size="14.00" fill="#000000">CursosComponent </text>
</g>
<!-- CursosModule&#45;&gt;CursosComponent  -->
<g id="edge7" class="edge">
<title>CursosModule&#45;&gt;CursosComponent </title>
<path fill="none" stroke="#000000" stroke-dasharray="5,2" d="M573.406,-122.2921C573.406,-144.2057 573.406,-178 573.406,-178 573.406,-178 636.218,-178 636.218,-178"/>
<polygon fill="#000000" stroke="#000000" points="636.218,-181.5001 646.218,-178 636.2179,-174.5001 636.218,-181.5001"/>
</g>
<!-- CursosComponent -->
<g id="node7" class="node">
<title>CursosComponent</title>
<polygon fill="#ffffb3" stroke="#000000" points="914.219,-190 793.781,-190 793.781,-154 914.219,-154 914.219,-190"/>
<text text-anchor="middle" x="854" y="-167.8" font-family="Times,serif" font-size="14.00" fill="#000000">CursosComponent</text>
</g>
<!-- CursosComponent&#45;&gt;CursosModule -->
<g id="edge6" class="edge">
<title>CursosComponent&#45;&gt;CursosModule</title>
<path fill="none" stroke="#000000" d="M854,-153.7772C854,-133.6348 854,-104 854,-104 854,-104 616.3769,-104 616.3769,-104"/>
<polygon fill="#000000" stroke="#000000" points="616.3769,-100.5001 606.3769,-104 616.3769,-107.5001 616.3769,-100.5001"/>
</g>
</g>
</svg>
